<svg width="20" height="20" viewBox="0 0 20 20" fill="none" xmlns="http://www.w3.org/2000/svg">
<path fill-rule="evenodd" clip-rule="evenodd" d="M0 3C0 2.20435 0.316071 1.44129 0.87868 0.87868C1.44129 0.316071 2.20435 0 3 0H17C17.7956 0 18.5587 0.316071 19.1213 0.87868C19.6839 1.44129 20 2.20435 20 3V13C20 13.7956 19.6839 14.5587 19.1213 15.1213C18.5587 15.6839 17.7956 16 17 16H3C2.20435 16 1.44129 15.6839 0.87868 15.1213C0.316071 14.5587 0 13.7956 0 13V3ZM3 3C2.73478 3 2.48043 3.10536 2.29289 3.29289C2.10536 3.48043 2 3.73478 2 4C2 4.26522 2.10536 4.51957 2.29289 4.70711C2.48043 4.89464 2.73478 5 3 5H17C17.2652 5 17.5196 4.89464 17.7071 4.70711C17.8946 4.51957 18 4.26522 18 4C18 3.73478 17.8946 3.48043 17.7071 3.29289C17.5196 3.10536 17.2652 3 17 3H3ZM2 9C2 8.73478 2.10536 8.48043 2.29289 8.29289C2.48043 8.10536 2.73478 8 3 8H7C7.028 8 7.056 8.00133 7.084 8.004C7.30489 7.98468 7.52594 8.03932 7.71239 8.15934C7.89884 8.27935 8.04012 8.45793 8.114 8.667C8.25216 9.05674 8.50768 9.39411 8.84541 9.63271C9.18314 9.87131 9.58649 9.99942 10 9.99942C10.4135 9.99942 10.8169 9.87131 11.1546 9.63271C11.4923 9.39411 11.7478 9.05674 11.886 8.667C11.9599 8.45793 12.1012 8.27935 12.2876 8.15934C12.4741 8.03932 12.6951 7.98468 12.916 8.004C12.9433 8.00067 12.9713 7.99933 13 8H17C17.2652 8 17.5196 8.10536 17.7071 8.29289C17.8946 8.48043 18 8.73478 18 9C18 9.26522 17.8946 9.51957 17.7071 9.70711C17.5196 9.89464 17.2652 10 17 10H13.464C13.1129 10.6081 12.608 11.113 11.9999 11.4641C11.3919 11.8151 10.7021 12 10 12C9.2977 12.0002 8.60774 11.8154 7.99949 11.4643C7.39124 11.1132 6.88615 10.6082 6.535 10H3C2.73478 10 2.48043 9.89464 2.29289 9.70711C2.10536 9.51957 2 9.26522 2 9Z" fill="#C7D2BE"/>
</svg>
