<svg width="25" height="17" viewBox="0 0 25 17" fill="none" xmlns="http://www.w3.org/2000/svg">
<path d="M12.943 0.0102665C11.0656 0.00710243 8.7137 0.600364 6.39338 1.80798C4.07676 3.0156 2.24055 4.59763 1.16266 6.14275C0.0842447 7.68259 -0.207376 9.11697 0.323132 10.14C0.854167 11.1578 2.19678 11.7431 4.07887 11.7431C5.96096 11.7484 8.31292 11.1525 10.628 9.95017C12.9483 8.74255 14.7834 7.15525 15.8592 5.6154C16.9403 4.07556 17.225 2.64118 16.6977 1.61814C16.1651 0.600364 14.8256 0.0102665 12.943 0.0102665ZM17.7893 3.71697C17.6047 4.5238 17.2039 5.35173 16.6397 6.15857C15.4479 7.86189 13.502 9.52302 11.0657 10.7886C8.62932 12.0595 6.15608 12.6976 4.07835 12.6976C3.09749 12.6976 2.18835 12.55 1.42212 12.2388L1.98057 13.3146C2.51214 14.3377 3.85106 14.923 5.73421 14.923C7.61682 14.923 9.96877 14.3324 12.2838 13.1248C14.6041 11.9224 16.4393 10.3351 17.5151 8.79001C18.5908 7.25017 18.8862 5.81579 18.3535 4.79802L17.7893 3.71697ZM19.308 4.6029C19.8987 6.01091 19.424 7.72478 18.2955 9.33318C17.2989 10.7623 15.7748 12.1492 13.8869 13.3093C14.4723 13.3726 15.084 13.4043 15.7063 13.4043C18.3166 13.4043 20.6791 12.8453 22.3455 11.9752C24.0172 11.1051 24.9348 9.96599 24.9348 8.81638C24.9348 7.66677 24.0172 6.52771 22.3455 5.65759C21.4965 5.21462 20.4629 4.85075 19.308 4.6029ZM24.9348 11.1842C24.3969 11.8117 23.6586 12.3654 22.7885 12.8189C20.9428 13.7787 18.4537 14.3535 15.7063 14.3535C14.5883 14.3535 13.5125 14.2586 12.5053 14.0793C11.2819 14.6963 10.0532 15.1551 8.8719 15.4556C8.93518 15.4926 8.99846 15.5242 9.06702 15.5611C10.7334 16.4312 13.0959 16.9902 15.7063 16.9902C18.3166 16.9902 20.6791 16.4312 22.3455 15.5611C24.0172 14.691 24.9348 13.5519 24.9348 12.4023V11.1842Z" fill="#C7D2BE"/>
</svg>
