<svg viewBox="0 0 210 153" fill="none" xmlns="http://www.w3.org/2000/svg">
<path d="M10.1254 57.1716C31.3811 36.8208 66.4944 49.8243 89.9819 35.9325C98.9038 32.0903 102.525 19.8949 96.0121 12.371C91.4788 6.82179 82.3584 6.37229 75.7274 4.76156C55.5929 -2.81044 100.883 -2.08802 103.764 12.7617C112.949 32.0689 91.6504 46.8812 74.6491 49.6906C54.9491 54.2766 30.174 47.8818 15.0289 64.2834C-1.22672 90.0121 21.7458 123.163 52.9641 134.213C73.6887 139.945 91.4465 133.93 118.936 132.833C128.792 132.009 131.259 129.344 133.963 123.848C138.035 112.075 135.058 103.449 140.675 91.0824C150.482 69.7202 180.338 34.3111 203.814 57.7602C208.031 62.2285 211.009 68.6607 209.405 70.2554C208.332 71.0152 198.6 68.3503 196.293 72.3798C196.126 72.6099 194.909 74.317 195.499 75.6494C197.14 79.2401 212.194 74.9698 206.545 81.7498C196.54 83.4034 190.316 75.2213 176.094 83.8261C169.34 86.5713 162.875 100.228 162.489 107.323C161.947 121.948 164.232 137.05 149.264 148.485C134.757 156.068 118.217 149.887 101.946 149.224C79.3594 148.004 80.9904 149.689 61.3709 146.773C20.5977 141.373 -17.4234 93.4316 10.1254 57.1716Z" fill="currentColor"/>
</svg>
