<svg viewBox="0 0 249 150" fill="none" xmlns="http://www.w3.org/2000/svg">
<path d="M-2.998 50.1128C-3.05825 49.7314 -1.75075 50.2762 -0.148017 50.9481C1.50292 51.6321 3.20809 52.2496 5.00364 52.6854C10.7217 54.1321 16.4036 53.6963 22.0855 54.1926C24.122 54.5014 25.4175 55.7967 27.5805 56.62C35.5099 58.6236 42.7282 52.6188 46.6447 46.3416C50.1153 40.016 51.0854 32.4616 53.2244 25.5549C54.0438 21.2632 56.5021 17.4375 59.3521 14.0598C67.3658 4.94975 79.9527 -1.03688 92.2625 0.149552C95.8295 0.561171 100.059 1.64469 103.783 2.56478C108.675 3.93281 113.363 4.5805 116.786 8.68458C118.913 10.9182 121.196 13.515 124.167 14.5441C129.68 16.2874 136.133 13.9872 141.146 17.4738C144.327 19.5138 147.786 22.4012 150.551 25.0585C153.401 27.5161 155.179 30.8514 159.174 31.4204C162.331 31.9289 166.675 29.8345 165.91 26.0876C165.476 23.8055 162.705 22.5464 162.717 20.2704C164.633 10.3068 182.703 6.91099 191.156 5.37953C197.38 4.63498 202.725 4.68341 208.835 5.68219C218.909 7.026 230.785 14.3686 236.437 21.1724C242.372 27.389 255.133 46.5716 240.347 49.6346C235.213 49.9251 236.539 51.7532 239.16 54.7253C241.016 56.7653 243.01 58.5631 245.119 60.1611C246.535 61.281 248.439 62.3705 248.987 64.0957C249.138 64.9795 247.909 65.2155 247.294 65.5606C246.354 65.8632 245.101 67.4673 244.348 67.4915C243.679 67.3765 243.414 66.3414 243.119 65.7664C242.179 62.7095 238.184 55.6454 235.177 54.7011C233.635 54.58 232.701 56.3718 231.207 56.5534C228.64 56.4868 225.693 52.5098 223.639 50.6152C221.138 47.7762 219.933 43.7569 216.957 41.3901C209.624 35.8211 201.086 47.867 195.35 51.6987C191.349 55.367 185.661 58.6841 185.245 64.5739C185.107 67.1828 185.679 69.8584 185.727 72.4431C185.655 75.282 186.24 77.3885 188.433 79.7251C194.127 85.966 200.586 92.116 206.864 97.7092C211.01 101.135 218.252 105.827 222.452 110.379C227.989 116.208 222.94 124.38 230.134 129.967C232.448 131.892 235.732 132.412 238.413 133.938C240.612 135.142 242.54 137.249 241.805 137.975C241.269 138.532 239.383 138.278 237.467 138.26C233.906 138.363 230.255 138.574 227.742 135.808C221.928 130.923 223.307 122.485 220.162 116.232C218.903 114.138 216.577 112.503 214.757 110.984C212.154 108.738 209.823 106.268 207.033 104.174C201.405 99.8399 196.019 96.5167 190.15 92.8182C186.969 90.5301 183.57 90.2032 181.118 87.1645C177.376 81.6016 179.985 74.477 178.545 68.2906C177.491 63.8959 173.767 67.2676 172.502 69.5557C170.513 72.6731 168.139 75.6694 166.645 79.1016C160.668 89.9369 168.923 89.3376 173.851 96.6983C177.726 102.019 182.124 108.865 186.324 113.859C189.861 117.188 193.488 116.45 194.699 123.181C195.253 131.147 199.797 137.818 207.051 140.699C210.461 142.067 214.589 142.576 217.156 145.554C218.391 147.061 218.415 148.623 216.963 149.325C205.388 152.279 197.724 145.166 193.12 135.239C191.198 131.65 190.62 126.995 188.583 123.944C185.77 120.033 181.046 117.231 178.214 113.242C175.623 109.882 174.785 107.189 171.688 104.035C169.573 101.85 166.928 99.8581 164.585 98.0784C161.457 95.5664 159.144 94.4768 156.824 91.5954C152.419 86.0386 154.854 78.3813 159.107 73.5266C162.705 68.3874 173.267 63.0667 164.868 56.85C157.698 50.5365 157.83 52.1345 150.666 56.5473C147.177 58.3451 141.899 55.3972 139.2 58.7023C137.971 61.1659 140.423 66.2567 141.26 69.2954C143.574 75.8329 145.713 81.0871 146.346 88.3085C147.87 96.0869 142.682 106.274 133.572 102.903C130.981 101.971 128.541 100.439 126.101 99.1438C101.529 86.3473 110.983 110.954 117.659 123.169C119.696 126.831 122.455 129.688 124.739 133.078C127.318 137.679 131.451 141.831 136.796 142.685C142.02 143.514 150.576 150.281 139.567 149.107C136.169 148.938 133.114 148.853 129.806 149.277C126.727 149.846 123.781 149.143 123.028 145.711C122.317 142.981 120.66 140.802 118.051 139.767C111.839 137.57 114.984 129.779 112.604 125.13C109.326 118.635 105.482 112.134 102.331 105.457C100.674 102.322 99.8363 99.2649 98.4625 96.1111C97.1008 93.7807 97.7033 91.0264 97.7515 88.472C97.613 84.041 91.8467 84.2045 89.5752 86.995C85.6647 91.4865 84.5139 98.3448 82.5135 103.69C80.9168 109.84 77.4462 116.498 81.0734 122.546C83.3872 127.533 88.6834 128.956 92.5999 132.328C97.6069 136.613 86.1889 135.021 84.074 135.209C79.8021 134.991 77.6571 130.729 75.3373 127.691C71.0895 122.654 71.0654 117.201 74.3251 111.553C76.205 107.703 78.5669 101.959 79.5309 98.5082C81.9471 91.1778 76.7653 76.753 87.5507 75.1489C89.9548 74.9673 91.9431 76.0447 94.1303 77.0375C98.4625 79.1137 102.445 81.4018 106.88 83.0907C125.046 88.2056 127.264 77.5823 126.824 62.3645C126.77 53.2181 127.836 43.2121 122.853 34.8587C119.684 29.774 114.46 24.3927 110.405 20.1675C105.838 15.8213 98.9867 13.394 92.9674 13.0187C79.0308 11.7717 70.9569 15.8516 63.7687 28.0246C59.6534 36.5173 57.4361 45.47 52.0675 53.4118C39.3721 70.8995 9.87211 64.1199 -2.998 50.1188V50.0946V50.1128ZM175.629 35.6335C172.628 36.5354 173.791 39.5499 175.942 40.694C177.183 41.4688 179.527 42.516 180.72 41.6988C181.721 40.6577 181.076 38.872 180.515 37.7279C179.714 36.1601 177.208 35.2158 175.719 35.6093L175.629 35.6335ZM180.817 23.291C180.395 24.7619 183.619 26.245 184.896 27.0198C187.445 28.3696 189.403 29.1808 192.06 28.9386C194.169 28.7873 196.844 27.6251 196.904 25.2038C196.663 21.5779 192.331 21.0695 189.451 21.3116C186.963 21.4205 182.082 21.0937 180.841 23.2183L180.817 23.2849V23.291ZM134.259 73.69C130.324 79.4648 136.747 81.42 132.391 90.9235C130.59 94.84 135.332 93.9925 136.627 91.8194C138.097 88.9683 138.344 85.1306 137.82 81.9769C137.525 79.719 135.434 75.9358 134.723 74.6162" fill="currentColor"/>
</svg>
