<svg viewBox="0 0 189 208" fill="none" xmlns="http://www.w3.org/2000/svg">
<path d="M43.9685 120.15C42.8601 118.093 42.8184 114.771 42.7851 112.318C42.6934 107.698 43.4518 103.146 44.9603 98.8975C46.9438 92.7099 50.4024 87.2304 52.5193 81.1524C56.1279 67.9594 62.0535 67.9847 73.1461 62.8508C75.6547 61.6959 75.463 61.1143 73.0294 61.03C60.245 60.8529 43.7351 63.7191 34.626 73.5822C33.1175 75.7403 32.6508 78.1091 32.0174 80.7309C30.909 85.2662 29.5839 91.3611 28.4254 95.5677C27.2587 99.9428 24.0167 104.082 23.925 97.5403C25.0668 87.6772 25.1001 74.6528 32.0758 67.0574C36.3762 62.5979 42.9434 61.1648 48.5022 58.737C55.5695 56.1827 64.0703 54.4967 71.4793 54.0836C72.8044 53.9909 73.5545 53.8729 73.2961 53.5694C64.6703 50.3576 54.7778 48.1152 45.3103 46.9771C37.6346 46.5556 29.4505 46.2353 21.8249 48.0899C14.7492 49.6748 9.06538 53.5863 2.76482 56.4946C0.881318 57.1943 -0.252115 57.1859 0.0479114 55.7359C1.74806 51.934 6.37347 49.1858 9.89046 46.699C14.1575 43.8075 18.2495 42.0962 23.5417 40.7895C31.8424 38.2943 37.6763 38.5724 46.1937 40.1741C55.5612 41.2785 64.737 45.0045 74.3046 44.9118C76.7048 44.8781 80.6218 44.5746 77.0631 41.6494C73.9128 39.0698 70.1792 36.5071 66.6789 34.3827C59.6949 30.1593 51.5192 28.625 44.2935 25.6155C41.1182 24.115 38.5513 21.7124 35.9845 19.3015C31.2507 14.7577 25.8752 10.6944 21.3498 6.10852C17.9745 2.93884 16.6411 -2.37205 23.5667 1.17698C30.859 5.17279 37.1596 11.9927 43.8018 16.9158C52.2859 22.0159 62.5285 24.0391 71.1209 28.7262C79.4467 32.8569 88.7808 44.4313 97.715 45.3839C102.107 44.9202 105.949 41.1942 109.599 38.9939C124.501 26.6609 120.309 28.5492 139.777 26.703C144.861 26.2478 148.703 24.8737 153.92 23.8958C158.07 23.1118 162.246 22.9601 166.563 22.8168C171.463 22.8926 184.764 22.1845 187.49 26.2731C187.365 29.8305 177.414 26.9559 175.022 27.0571C169.33 27.0824 163.246 27.7062 157.72 28.2878C154.128 28.8527 150.628 30.0581 147.044 30.741C144.002 31.3395 140.927 31.3901 137.885 31.8537C133.527 32.4944 129.518 34.2731 125.076 36.1362C122.009 37.4512 118.759 38.8001 116.267 41.034C114.083 42.8465 112.466 46.1426 116.25 45.5019C118.725 44.9287 122.542 42.8043 125.476 41.8096C130.101 40.0983 134.393 39.3817 139.144 38.1762C145.111 36.7178 150.803 34.349 156.887 33.7252C160.979 33.2784 165.154 33.8179 169.221 33.9275C172.297 34.1636 184.923 33.2784 185.548 37.0298C185.306 37.9318 180.964 37.9992 178.831 37.9655C173.405 38.0835 166.621 38.7832 161.171 39.5166C153.537 40.9497 146.744 44.0351 138.76 46.0161C137.694 46.6315 110.774 52.8781 118.358 53.561C121.084 53.7549 126.943 53.4851 130.701 53.4935C137.619 53.2322 143.436 55.4071 150.103 56.6464C161.054 58.8044 172.73 60.0184 181.964 66.9815C184.148 68.3641 193.64 75.1081 186.198 74.9057C181.106 74.0037 176.564 70.1765 171.33 68.6254C165.579 66.8045 159.954 65.1438 154.303 63.2892C145.036 61.1396 133.226 59.6474 123.601 60.2544C121.042 60.5663 120.809 61.2491 122.592 62.2017C127.026 64.3935 132.11 65.8519 135.802 69.4009C142.519 75.5717 146.878 84.9121 150.945 93.3C153.578 98.712 152.111 104.411 150.145 109.738C148.178 114.383 146.986 119.753 142.902 122.67C138.427 123.353 150.845 104.495 144.211 92.575C140.369 84.6508 135.127 75.9173 126.984 72.2924C125.534 71.7445 123.776 70.9521 123.551 72.1997C124.101 74.5348 125.859 76.6423 126.634 78.9858C128.401 84.4063 130.235 93.1651 127.918 98.358C124.109 105.692 118.934 106.206 111.558 106.324C107.999 106.813 108.908 110.329 110.616 112.335C114.825 117.545 120.434 120.453 125.776 124.643C130.951 128.495 137.652 133.831 141.477 138.712C147.586 146.957 149.653 158.919 149.67 169.355C149.136 179.067 148.286 189.714 140.052 196.23C132.685 201.659 122.259 207.754 113.708 207.999C109.316 208.041 105.199 207.181 101.182 205.082C85.0805 196.492 70.5542 168.049 83.0303 150.708C94.5647 135.256 115.883 140.238 120.867 157.646C123.259 169.119 112.141 183.526 100.59 175.61C94.5147 171.134 94.6897 161.381 101.057 157.183C103.215 155.699 105.682 155.008 105.882 156.297C105.149 159.534 99.2484 166.11 103.782 169.49C107.391 171.741 111.616 168.335 112.258 164.449C112.858 161.701 112.783 158.7 111.933 156.019C109.241 148.373 98.0483 145.338 92.2561 151.273C89.4476 154.274 88.3058 159.315 87.5391 163.421C86.514 168.563 88.2641 173.233 90.681 177.718C95.8231 187.294 102.865 195.438 114.725 194.232C121.742 193.372 132.218 187.699 134.36 180.357C137.168 170.468 136.993 158.169 131.71 149.334C128.993 145.558 125.301 142.565 121.725 139.598C115.558 134.919 107.791 131.395 102.24 125.722C97.8983 121.279 93.4812 112.116 93.1896 111.576C92.4728 110.27 91.8978 109.165 91.5061 108.407C90.981 107.673 90.0976 106.645 88.7475 105.869C85.3472 103.913 82.1552 105.389 79.23 105.33C72.4127 105.195 64.387 96.6636 64.8204 89.987C65.1871 84.4063 68.9791 79.205 72.1544 75.0996C73.2461 73.8267 74.6129 71.4916 73.8628 70.9521C71.1043 69.8056 66.1455 73.8604 63.8119 75.7656C59.3199 79.2978 55.8446 83.7909 53.7444 89.1103C51.5775 94.1851 49.594 99.8164 49.1273 105.439C48.6522 110.034 48.5022 115.614 45.952 119.399C45.7353 119.728 45.0853 120.613 44.4769 120.495C44.2435 120.445 44.0852 120.259 43.9935 120.133L43.9685 120.15Z" fill="currentColor"/>
</svg>
