<svg viewBox="0 0 219 244" fill="none" xmlns="http://www.w3.org/2000/svg">
<path d="M16.3573 120.633C16.6192 119.456 17.1812 117.013 18.7234 114.315C19.6444 112.702 20.2191 112.219 21.174 110.191C21.7486 108.972 22.2218 107.964 22.6612 106.503C23.1471 104.89 23.5485 102.891 24.064 102.904C24.1569 102.904 24.1823 102.972 24.5456 103.124C24.9682 103.302 25.1794 103.391 25.2893 103.344C25.585 103.222 25.4879 102.341 25.378 100.097C25.3484 99.5082 25.3273 98.9663 25.6864 98.6064C25.9061 98.3819 26.2737 98.2253 26.4301 98.3438C26.5484 98.4328 26.4639 98.6106 26.5188 99.0001C26.5653 99.3558 26.7174 99.83 26.8695 99.8343C27.0216 99.8385 27.1483 99.3727 27.2624 98.9578C27.8624 96.7856 28.0948 96.0743 28.2258 95.7101C28.6652 94.4949 28.7708 94.0249 29.0581 93.9995C29.2229 93.9868 29.3877 94.1096 29.4722 94.2282C29.6581 94.4907 29.4553 94.732 29.4722 95.3799C29.4511 95.8118 29.5905 96.4469 30.1271 96.4977C31.0101 96.4723 31.4031 91.315 32.3918 91.2642C32.5016 91.26 32.772 91.3065 33.0171 91.4632C33.3129 91.6495 33.3847 91.8782 33.6424 91.9247C34.7029 91.984 35.2691 89.7568 35.6452 88.6686C36.1353 87.1866 36.3508 86.1492 36.8916 87.2544C37.2254 87.8895 37.0352 88.3299 37.4155 88.7364C38.0704 89.5366 38.7464 87.7032 40.0098 85.4464C41.1379 83.3631 41.7294 82.457 42.0125 82.5501C42.0463 82.5628 42.0801 82.5882 42.342 83.4055C42.5575 84.0787 42.6209 84.3243 42.8364 84.4259C42.9674 84.4894 43.1322 84.4894 43.3941 84.392C44.5053 83.9855 44.5983 82.8677 45.7898 82.2876C46.1067 82.131 46.432 82.0505 46.5461 82.0251C46.7742 81.9701 47.2644 81.8557 47.8601 81.9277C48.4009 81.9912 48.3545 82.131 48.6502 82.1267C49.2924 82.114 49.453 81.4577 50.653 80.6786C51.2149 80.3145 51.4811 80.2594 51.705 80.3145C51.9332 80.3526 52.5754 80.7548 52.7233 80.8395C52.8796 80.8861 53.1627 80.8819 54.2993 79.9165C54.688 79.5565 55.2584 79.1374 55.7443 79.3914C55.9429 79.51 55.8922 79.7132 56.04 79.8529C56.3231 80.1197 56.9569 79.8699 57.0921 79.8191C57.6752 79.5904 57.6118 79.3364 58.0766 79.1289C58.3597 79.0019 58.5075 79.04 60.1469 79.1289C60.9328 79.1712 60.9919 79.167 61.0976 79.1289C61.6722 78.9299 61.7144 78.4599 62.3778 78.2058C62.5933 78.1211 62.7961 78.1084 63.1975 78.0746C63.7425 78.0322 64.0636 78.0068 64.2495 78.2058C64.427 78.3964 64.3045 78.6038 64.4777 78.7309C64.689 78.8875 65.103 78.7563 65.365 78.5657C65.7199 78.3074 65.6396 78.0619 65.9565 77.9094C66.1889 77.7993 66.4171 77.8374 66.81 77.9094C67.1058 77.9602 67.279 77.9941 67.3677 78.1381C67.4902 78.3328 67.3255 78.5446 67.4353 78.6631C67.579 78.824 68.0437 78.6335 68.124 78.5954C69.6113 77.9602 70.4479 76.5799 71.4408 76.7196C72.2774 76.8678 72.0872 77.3632 71.538 78.0365C71.2718 78.3837 71.1028 78.498 71.145 78.6292C71.1957 78.7817 71.4999 78.8282 71.7027 78.8282C72.2774 78.8198 72.6872 78.4048 72.9196 78.2016C73.3632 77.8078 73.9505 77.5791 75.1209 77.1134C75.9786 76.7746 77.8081 76.0548 78.932 76.8847C79.2785 77.143 79.4179 77.4394 79.5235 77.6088C81.0488 80.0943 90.2893 78.4091 94.1722 76.491C95.351 75.9066 98.1354 74.2637 98.5748 73.6879C98.9382 73.2433 98.8199 73.7387 98.6044 74.7803C98.3931 75.75 98.3171 75.9236 98.4058 75.9998C98.4861 76.0633 98.7269 76.0675 100.016 75.0132C101.397 73.8784 102.204 72.9935 102.348 73.1036C102.386 73.1332 102.339 73.2094 102.149 73.8615C102.014 74.3315 101.955 74.5771 101.921 74.7507C101.82 75.2249 101.773 75.462 101.824 75.5086C102.242 75.9024 106.049 72.8834 106.514 72.2906C106.535 72.2652 106.636 72.1297 106.683 72.1551C106.738 72.1805 106.683 72.3922 106.615 72.7818C106.577 72.9892 106.552 73.201 106.518 73.4084C106.32 74.7422 106.108 75.1064 107.405 74.1664C108.643 73.2264 109.218 72.3965 109.442 72.5192C109.51 72.5574 109.51 72.6632 109.51 72.9808C109.501 74.2637 109.463 74.3484 109.51 74.4289C110.055 75.4028 116.177 72.388 116.177 72.388C121.45 69.7924 124.082 68.4967 126.258 66.6294C128.012 65.1263 130.462 63.0219 132.313 59.3889C139.614 44.929 127.944 29.6053 119.265 24.5454C110.118 19.134 100.556 18.2702 90.1921 21.1241C87.0824 22.0556 88.2232 22.1742 80.2967 25.3372C76.811 26.726 72.3027 28.4155 72.5013 29.3724C72.645 30.0711 75.2012 29.9694 75.3913 31.0407C75.4674 31.4599 75.1589 31.9468 74.9519 32.2686C74.9519 32.2686 74.5801 32.8445 73.9886 33.234C72.5858 34.1571 65.9819 33.9877 64.5749 33.9792C62.0947 33.9665 63.113 34.4027 52.9726 36.5664C52.2458 36.723 50.1079 37.1761 48.0249 38.4548C46.9728 39.0984 46.3264 39.4965 45.7053 40.2967C45.2025 40.9403 45.0546 41.4188 44.3913 41.9184C43.7786 42.3842 43.1744 42.5282 42.5956 42.6637C40.3604 43.1802 39.245 43.4428 38.7845 43.4978C35.6409 43.8831 32.6453 47.1392 30.9468 48.9811C27.499 52.7242 26.3413 56.1963 25.5597 55.9126C25.0822 55.739 25.1921 54.3163 25.2512 53.5414C25.5555 49.6501 27.4821 46.8005 27.9215 46.1696C31.6524 40.7964 36.9803 37.3031 39.0887 35.9905C43.0392 33.522 44.9701 32.891 51.0881 29.9779C51.0881 29.9779 63.5186 24.4522 65.4495 22.6061C65.4706 22.5849 65.8678 22.2038 66.5016 21.9032C67.2241 21.5687 67.71 21.412 68.517 22.0768C69.4338 22.8559 69.3451 23.6562 69.7 23.6985C70.469 23.7959 71.9985 20.1629 72.0408 18.9774C72.0408 18.9435 72.045 18.8038 72.1084 18.7826C72.4083 18.6767 73.2745 21.4629 73.9041 21.4163C74.7575 21.5391 74.4871 14.8363 75.1294 15.8652C75.7293 16.9026 76.3335 17.9357 76.6166 17.9273C77.2039 17.9103 77.4321 13.4432 77.787 13.4517C77.863 13.4517 77.9137 13.6592 77.9391 13.7608C78.2433 14.9379 78.9405 16.6697 79.2742 16.6697C79.8573 16.6697 80.0939 11.3769 80.677 11.3727C80.9094 11.3727 81.1544 12.228 81.2559 12.6006C81.5812 13.7142 81.3826 14.5822 82.2361 14.7982C83.0177 14.6542 82.5403 9.81448 82.9755 9.76367C83.1065 9.74673 83.2628 10.1659 83.5163 10.9831C84.3656 13.7311 84.4543 15.1411 84.6994 15.1454C85.1177 15.1581 85.5951 11.1229 85.7007 10.2421C86.0218 7.5407 86.0218 6.21538 86.2585 6.19421C86.9049 6.01214 87.902 16.6274 88.671 11.1948C89.233 7.83709 89.0217 5.57178 89.2626 5.53367C89.6555 5.47016 90.7667 11.4574 91.2991 11.3939C91.5103 11.3684 91.5526 10.3776 91.9075 6.42286C92.0807 4.47511 92.1399 3.96277 92.3173 3.93737C92.9976 3.83998 94.2187 11.0466 95.0257 10.962C95.9045 10.873 95.5876 2.23097 96.2552 2.19286C96.4453 2.18016 96.6481 2.84917 98.0467 7.48989C98.5326 9.10313 98.672 9.5689 98.8495 9.56466C99.5677 9.54349 100.049 3.10746 99.9184 1.63394C99.8128 0.46106 100.316 2.60358 100.459 3.26412C101.156 6.43556 100.941 8.03187 101.249 8.06998C101.794 8.13772 103.21 3.21331 103.32 1.07502C103.32 1.05385 103.332 0.812501 103.37 0.812501C103.59 0.799798 103.958 9.56466 104.718 9.5816C104.815 9.5816 104.904 9.4461 105.196 8.54421C105.745 6.83358 106.582 4.22106 106.721 1.05809C106.776 -1.13525 108.327 10.6444 108.348 11.0297C108.348 11.0678 108.36 11.1864 108.398 11.1948C108.517 11.216 108.8 10.1405 108.939 9.61547C109.463 7.67196 109.277 8.73899 111.483 2.52313C111.559 2.31142 111.669 2.00232 111.762 2.01502C112.108 2.0616 111.863 6.42709 111.812 7.3798C111.555 11.2541 111.305 12.8843 112.911 9.5689C113.371 8.62466 113.878 7.3925 114.521 5.3389C114.935 4.02205 115.002 3.6325 115.112 3.6452C115.488 3.68331 115.319 8.468 115.277 9.68322C115.252 10.3438 115.408 10.9831 115.18 11.758C115.146 11.8723 115.095 12.0205 115.129 12.0375C115.239 12.0967 116.088 10.7587 116.688 9.71709C117.77 7.84556 118.188 6.70655 118.691 6.09682C118.801 5.96556 119.092 5.63953 119.333 5.12719C119.434 4.90701 119.439 4.84349 119.464 4.84772C119.696 4.86466 119.984 9.99232 119.367 13.3077C119.333 13.4898 119.27 13.8116 119.333 13.8328C119.561 13.9175 121.496 10.3268 122.092 7.54493C122.117 7.42637 122.172 7.16385 122.223 7.16809C122.489 7.26124 122.586 13.4093 122.32 15.2131C122.493 15.2851 124.179 12.7869 124.585 10.2125C124.619 10.0008 124.644 9.78908 124.699 9.78484C124.965 9.77214 125.713 14.5187 125.405 16.5003C125.388 16.6189 125.362 16.7417 125.405 16.7629C125.629 16.8729 127.53 14.1842 127.505 11.9401C127.505 11.8215 127.496 11.5971 127.505 11.5929C127.559 11.5929 128.155 15.717 127.881 17.1397C127.868 17.2075 127.847 17.3006 127.881 17.3218C128.041 17.4149 129.423 15.8821 129.786 13.9302C129.858 13.5448 129.82 13.2738 129.866 13.2738C129.997 13.2654 129.93 15.2597 130.509 17.8976C130.716 18.8461 131.007 19.8793 130.64 21.0394C130.576 21.2384 130.454 21.5645 130.492 21.5814C130.568 21.6153 130.872 20.1841 131.806 19.278C131.962 19.1298 132.363 18.7699 132.414 18.2406C132.431 18.0628 132.402 17.9315 132.414 17.9273C132.452 17.923 132.786 19.3119 132.909 20.8574C133.065 22.8898 132.765 24.0796 132.989 24.1304C133.255 24.1939 133.863 22.6019 134.058 22.0895C134.772 20.2138 134.721 19.4897 134.945 19.4558C135.638 19.3542 136.99 26.184 138.967 33.7083C141 41.4442 141.587 41.91 141.988 45.6869C142.567 51.1448 141.895 55.3791 141.595 57.0092C139.508 68.4247 135.013 74.7676 120.051 80.179C107.481 85.0145 96.8214 86.8352 91.2822 87.682C67.9592 91.2515 65.0397 88.3299 53.581 93.2119C36.0127 101.219 33.4523 109.476 32.1678 118.092C30.6848 128.716 34.0354 136.964 34.9269 139.026C34.9269 139.026 38.5309 147.368 48.5868 155.087C49.4488 155.747 51.4557 157.204 52.6599 156.535C53.8007 155.9 54.0753 153.423 54.1049 153.114C54.2148 152.017 54.012 151.509 54.2359 151.403C54.7683 151.149 56.0865 153.944 58.9639 156.539C60.7215 158.123 63.0623 159.634 63.5608 159.173C64.2749 158.512 60.6117 154.392 61.5919 153.249C62.306 152.419 65.1284 153.567 66.717 154.435C70.0676 156.268 70.8704 158.474 72.1041 158.123C73.3083 157.78 73.8745 155.294 73.6801 153.385C73.3928 150.522 71.4154 149.07 71.8422 148.515C72.6661 147.431 79.8489 153.249 82.4811 151.28C83.7867 150.306 82.5234 148.507 84.1881 143.383C84.9233 141.118 85.3754 139.729 86.6852 138.383C87.8387 137.197 88.7893 136.93 89.0513 135.88C89.4442 134.301 87.8429 132.675 87.1246 131.887C83.7107 128.14 79.7517 120.836 79.8573 114.773C79.8869 113.1 80.2418 110.505 78.894 107.663C77.3349 104.644 76.9293 104.733 72.1506 102.311C70.3 101.392 69.3705 100.922 69.2606 100.207C69.1338 99.3897 69.8648 98.6402 70.1352 98.365C71.1535 97.3191 72.5309 97.1879 73.1985 97.1371C75.4843 96.955 77.3095 97.9035 77.8419 98.1914C82.5614 100.719 85.0163 103.315 88.4386 105.39C90.2639 106.495 94.4806 108.739 99.91 109.078C103.848 109.323 106.818 108.464 109.455 107.672C118.281 105.03 117.867 101.52 125.219 100.038C127.124 99.6522 130.657 99.1822 131.087 97.4038C131.138 97.1964 131.109 97.1201 130.826 95.8245C130.238 93.1611 129.773 90.8238 129.773 90.8238C129.288 90.0871 129.321 89.7695 129.423 89.6171C129.499 89.5027 129.757 89.2614 132.465 89.9008C133.889 90.2395 134.611 90.4131 135.224 90.7561C136.669 91.5437 137.789 92.6191 137.915 94.9691C138.249 98.238 137.611 98.9155 138.198 100.673C138.431 101.363 138.815 102.519 139.863 103.086C140.366 103.361 140.907 103.433 143.497 103.065C146.708 102.608 146.716 102.379 147.46 102.561C148.833 102.896 152.108 105.792 150.984 104.932C153.916 104.509 155.298 104.598 155.974 104.822C156.046 104.848 156.257 104.92 156.367 104.822C156.73 104.505 155.661 102.714 154.964 101.596C151.956 96.7645 149.205 93.5422 149.205 93.5422C145.597 89.308 142.179 85.7046 136.2 81.6059C133.716 79.9418 132.579 79.4973 131.954 77.9645C131.054 75.6018 131.497 74.81 134.142 73.8403C136.141 73.1544 137.822 73.1713 140.712 73.2687C143.932 73.3788 145.538 73.4338 146.319 73.5312C162.366 75.3265 183.289 94.2197 196.151 111.182C199.024 115.412 203.667 122.454 204.648 126.891C205.408 129.779 205.484 132.04 205.522 133.386C205.586 135.618 205.366 136.634 205.26 137.074C205.155 137.498 205.011 137.976 203.245 141.287C201.927 143.76 201.31 144.806 200.093 145.763C199.4 146.309 198.745 146.644 198.648 146.529C198.563 146.432 198.906 146.03 199.328 145.06C199.577 144.489 199.556 144.404 199.527 144.357C199.235 143.896 197.038 144.925 196.835 144.556C196.696 144.298 197.676 143.68 197.49 143.176C197.423 142.994 197.279 143.023 196.789 142.714C196.59 142.592 196.24 142.308 195.542 141.749C195.276 141.533 195.133 141.419 194.909 141.398C194.609 141.372 194.368 141.533 194.275 141.597C193.899 141.842 194.393 141.402 192.15 142.452C188.706 144.137 188.655 144.315 189.086 145.306C189.226 145.644 190.553 146.339 190.574 146.864C190.595 147.114 190.438 147.317 190.202 147.63C189.847 148.1 189.543 148.257 189.589 148.354C189.64 148.456 190.046 148.397 190.379 148.265C190.916 148.058 191.169 147.715 191.254 147.783C191.326 147.838 191.199 148.092 191.081 148.418C190.793 149.26 190.544 149.557 190.992 149.735C191.245 149.786 191.427 149.451 191.934 149.032C193.197 147.944 192.361 149.362 192.133 149.798C191.824 150.336 191.605 150.556 191.693 150.785C191.782 151.005 192.09 151.068 192.107 151.068C192.412 151.124 192.606 150.925 193.354 150.497C193.776 150.256 193.988 150.137 194.034 150.188C194.119 150.281 193.759 150.92 193.244 151.416C193.058 151.594 192.864 151.746 192.872 151.966C192.876 152.106 192.969 152.284 193.113 152.381C193.244 152.474 193.35 152.449 193.375 152.512C193.426 152.644 193.054 152.902 192.961 152.974C192.961 152.974 192.543 153.423 191.714 154.312C190.578 155.531 191.106 155.019 190.51 155.65C190.295 155.879 190.117 156.061 189.94 156.374C189.691 156.819 189.792 156.916 189.589 157.229C189.209 157.818 188.524 157.996 188.343 158.042C188.182 158.085 187.984 158.131 187.73 158.11C187.303 158.068 187.003 157.852 186.767 157.67C185.791 156.92 185.453 156.505 185.453 156.505C181.832 152.059 180.708 150.95 180.319 148.714C180.154 147.762 180.315 147.711 180.091 146.673C179.935 145.954 179.592 144.751 178.219 142.528C176.876 140.356 176.246 139.962 175.198 137.853C174.721 136.892 174.412 136.1 174.573 135.186C174.683 134.551 174.945 134.297 175.688 133.213C177.1 131.151 177.801 130.101 177.759 129C177.75 128.822 177.691 127.742 176.905 126.993C176.588 126.692 176.229 126.514 175.494 126.302C173.377 125.693 172.819 126.137 171.193 125.612C170.001 125.227 170.031 124.905 169.025 124.757C168.277 124.647 167.639 124.77 166.363 125.02C165.045 125.278 164.711 125.506 164.555 125.811C164.411 126.087 164.475 126.319 164.487 126.667C164.517 127.293 164.365 127.679 163.862 129.038C162.734 132.082 162.603 132.523 162.776 133.12C162.823 133.272 163.059 133.619 163.533 134.305C165.358 136.952 165.632 137.333 165.865 137.959C166.123 138.65 166.152 139.158 166.194 140.593C166.283 143.654 166.33 145.183 166.292 146.724C166.292 146.724 166.207 150.141 166.465 153.833C166.465 153.833 166.693 157.068 169.967 168.84C170.521 168.827 171.248 168.84 172.093 168.928C172.093 168.928 173.369 169.06 174.543 169.369C176.609 169.907 178.397 171.363 179.428 172.155C182.381 174.425 186.256 176.698 189.082 178.015C190.215 178.54 191.799 179.205 192.762 180.45C193.324 181.178 193.704 181.64 194.469 182.554C194.947 183.13 194.989 183.164 195.061 183.211C195.948 183.786 196.81 183.02 198.741 182.948C200.41 182.889 201.407 182.978 201.829 184.921C202.129 185.954 202.193 186.661 202.256 187.026C202.493 188.398 203.46 189.304 204.753 190.515C205.383 191.103 206.219 191.781 208.298 192.983C208.767 193.254 210.542 194.266 214.505 196.21C216.74 197.323 218.43 198.043 218.51 200.325C218.751 202.743 218.489 204.835 218.312 204.835C218.215 204.835 218.27 204.221 217.919 203.319C217.712 202.794 217.458 202.392 216.867 201.642C214.97 199.212 214.581 198.733 212.008 197.726C212.008 197.726 210.001 196.913 207.115 196.934C206.076 196.972 206.655 197.759 207.445 199.174C207.445 199.174 207.491 199.254 207.622 199.487C207.656 199.534 209.477 202.79 209.578 203.023C209.836 203.675 209.798 204.085 209.743 206.147C209.714 207.316 209.714 207.612 209.515 208.057C208.966 209.209 207.863 209.92 206.955 210.428C205.028 211.533 204.238 212.173 204.162 212.075C204.082 211.969 205.003 211.258 206.295 209.675C207.597 208.044 207.681 207.596 207.411 205.792C207.204 204.632 206.879 202.874 205.67 200.821C205.417 200.393 204.834 199.656 203.667 198.187C202.455 196.714 201.77 195.735 200.744 196.443C200.334 196.777 200.3 197.353 200.283 197.56C200.186 198.843 199.637 201.138 199.168 201.181C198.914 201.202 198.669 200.584 198.378 199.864C198.078 199.11 197.828 198.488 197.854 197.658C197.879 196.857 198.141 196.43 197.887 195.714C197.786 195.435 197.655 195.244 197.592 195.155C196.725 193.906 196.966 193.792 194.799 190.582C193.189 188.199 192.386 187.004 191.681 186.467C190.536 185.594 189.458 185.264 188.398 184.951C182.356 183.168 180.987 182.868 179.17 182.283C175.266 181.034 176.529 180.818 170.859 178.697C168.928 177.973 167.17 177.397 165.671 175.669C165.142 175.06 165.104 174.839 164.027 172.871C161.665 168.594 159.164 165.177 157.689 161.154C157.165 159.63 157.106 158.915 156.375 156.941C155.771 155.307 155.598 155.227 154.93 153.584C153.265 149.502 153.413 147.774 152.37 147.529C151.787 147.389 150.95 148.007 149.281 149.239C148.305 149.963 147.646 150.569 147.443 150.755C146.243 151.831 145.415 152.119 139.758 154.638C133.678 157.352 135.199 156.772 135.093 156.81C133.124 157.56 131.878 157.831 131.548 158.851C131.303 159.605 131.793 160.041 131.548 161.548C131.426 162.298 131.354 162.742 131.024 163.195C130.272 164.22 129.203 163.919 128.396 165.037C127.403 166.308 128.223 167.557 129.051 168.264C130.952 170.021 131.937 172.578 133.585 174.581C135.693 177.147 134.649 177.604 139.103 190.379C139.977 192.89 140.1 195.621 140.941 198.145C141.198 198.915 141.756 200.499 141.072 201.964C140.966 202.193 140.543 203.031 139.627 203.543C138.997 203.895 138.448 203.924 136.868 203.937C135.101 203.954 134.218 203.963 133.847 203.937C127.217 203.501 124.344 203.061 124.344 203.061C116.452 201.845 112.509 201.24 109.632 199.462C108.643 198.852 106.556 197.425 103.413 196.828C103.413 196.828 102.035 196.269 100.083 196.565C99.3184 196.65 99.2339 197.272 99.4283 197.84C100.823 202.489 101.486 203.459 101.486 203.459C105.06 208.667 104.232 209.022 108.622 214.734C110.997 217.821 112.915 220.29 116.109 223.029C118.454 225.041 120.081 226.408 122.679 227.374C124.082 227.894 124.572 227.856 130.957 228.69C136.521 229.419 137.48 229.622 138.705 230.007C141.946 231.024 143.784 232.268 145.098 233.649C146.18 234.784 147.012 236.13 146.852 236.282C146.729 236.401 146.083 235.74 144.794 235.097C143.898 234.652 143.163 234.445 142.648 234.305C140.518 233.7 138.076 233.822 137.789 234.699C137.814 235.016 138.714 235.165 139.255 235.292C141.579 235.838 143.129 237.396 143.721 237.989C144.291 238.56 144.984 239.416 144.836 239.589C144.676 239.78 143.691 238.988 142.056 238.294C141.291 237.968 141.114 237.976 137.831 237.197C134.696 236.503 132.921 235.804 133.585 237.265C134.117 238.607 135.503 239.145 135.401 239.369C135.342 239.5 134.827 239.39 134.721 239.369C133.8 239.166 133.34 239.064 132.402 238.361C130.69 237.074 127.788 238.484 122.548 237.968C121.319 237.845 120.423 237.663 119.658 237.506C115.285 236.604 114.795 235.571 110.397 234.28C107.19 233.34 105.994 233.462 105.077 232.175C104.317 231.104 104.401 229.986 104.355 228.623C104.355 228.623 104.304 227.145 102.517 220.133C102.018 218.173 100.117 215.2 96.3439 209.34C93.1075 204.314 90.4752 198.92 87.2809 193.872C87.2049 193.754 85.9416 191.759 85.443 188.935C84.8134 185.848 86.0768 184.405 87.7415 183.342C89.6513 182.017 91.861 182.19 93.5215 183.012C95.0891 183.71 93.3694 182.635 105.149 185.84C108.191 186.67 111.343 187.026 114.411 187.75C115.049 187.902 116.604 188.275 116.84 187.817C117.043 187.419 116.16 186.594 115.657 186.107C115.657 186.107 114.428 184.913 111.06 180.577C109.201 178.185 108.272 176.203 106.201 173.798C105.458 172.875 103.966 171.706 101.997 171.956C99.9691 172.155 98.4988 173.48 97.9917 173.929C95.7947 175.873 93.6947 177.228 90.0442 179.59C87.057 181.521 86.4697 181.428 83.8036 183.41C82.4347 184.426 81.5389 185.235 80.1235 186.505C76.2913 189.951 76.042 190.781 73.0971 193.22C70.5535 195.32 68.7409 196.358 68.1071 196.709C66.4973 197.598 65.1453 198.335 63.1806 198.75C60.3117 199.381 56.0189 198.848 53.5895 198.42C51.8064 198.128 48.9206 198.005 43.1448 197.764C42.2829 197.759 30.5031 197.137 29.8778 199.474C29.8144 199.771 29.9877 199.864 30.3806 201.405C30.7228 202.743 30.7059 203.099 30.5116 203.294C30.3552 203.45 30.1482 203.442 29.4595 203.382C27.5244 203.217 27.0343 203.103 26.5695 203.382C26.1639 203.628 26.0075 204.035 25.9146 204.259C25.1203 206.156 24.3006 205.792 19.7416 214.569C19.2177 215.581 17.5868 218.744 16.2812 222.555C15.9601 223.491 15.5165 224.884 15.7573 226.637C16.1756 229.152 17.2614 230.702 19.3022 232.078C22.2471 234.068 28.568 233.738 30.4693 234.318C32.6411 234.864 34.0227 235.681 36.4691 237.125C37.838 237.934 38.9028 238.692 39.7098 239.979C40.2506 240.843 40.7872 242.117 40.4534 242.392C40.2675 242.545 39.8957 242.325 39.0506 241.91C39.0506 241.91 37.7873 241.292 36.2494 240.682C34.7663 240.093 32.8988 239.725 32.7467 240.068C32.6791 240.22 32.9791 240.445 34.5001 241.778C35.9747 243.07 36.4057 243.481 36.3381 243.578C36.2789 243.667 35.8775 243.426 35.2015 243.227C34.2635 242.951 33.6086 242.994 33.0551 242.964C32.3664 242.926 31.5003 242.604 29.7722 241.956C28.2384 241.38 26.654 240.936 25.1287 240.335C24.7358 240.178 24.1273 239.932 23.6415 240.203C23.2992 240.394 23.1344 240.8 22.8091 241.609C22.4626 242.469 22.5218 242.651 22.2852 242.926C21.8077 243.476 20.9458 243.459 20.4895 243.451C16.2221 243.387 16.146 243.955 12.694 243.409C11.3842 243.201 10.7124 243.091 10.066 242.795C8.7097 242.172 7.9534 241.262 6.47459 239.242C2.05506 233.191 3.75358 234.369 1.21848 230.774C0.825539 230.215 0.0692335 229.177 0.343869 228.098C0.559353 227.242 1.31988 226.76 1.61565 226.561C3.66908 225.189 4.92395 222.885 6.6943 221.162C10.4209 217.529 9.63079 214.146 15.0559 206.067C15.0559 206.067 19.7163 199.123 20.2233 195.227C20.4261 193.661 20.181 192.64 20.181 192.64C19.9191 191.548 19.4966 191.256 19.26 190.007C18.6896 187.8 19.767 186.56 21.3599 185.836C23.0457 185.023 24.7104 185.243 25.2132 185.311C28.6483 185.76 32.1045 185.992 35.548 186.365C39.5619 186.797 41.8731 187.047 45.0081 186.585C46.6559 186.344 48.0714 185.971 51.2276 185.62C53.5387 185.362 54.6922 185.235 55.4739 185.268C58.1949 185.387 59.9821 186.149 60.9455 185.137C61.6595 184.002 62.0102 182.715 62.5637 181.187C63.113 179.734 63.4383 179.218 63.1764 178.904C62.9482 178.633 62.4454 178.71 62.3017 178.731C60.1385 179.031 57.9583 178.168 55.7781 178.159C52.3684 178.151 48.4643 176.512 46.0137 175.483C40.2168 173.048 36.6212 169.106 32.7889 164.821C29.8947 162.111 12.5842 137.354 16.3699 120.675L16.3573 120.633ZM103.4 119.816C104.837 120.76 105.555 121.234 106.049 121.459C107.181 121.975 108.005 122.166 108.952 122.386C110.245 122.686 110.722 122.657 111.056 122.386C111.263 122.216 111.364 121.937 111.559 121.374C111.863 120.506 112.028 120.044 111.897 119.562C111.711 118.884 111.052 118.533 110.507 118.253C109.526 117.749 108.686 117.711 107.186 117.665C106.02 117.627 104.786 117.686 103.484 118.169C102.91 118.384 102.542 118.6 102.517 118.884C102.487 119.197 102.88 119.468 103.4 119.811V119.816ZM94.882 120.891C94.7468 123.427 94.9665 124.854 94.9665 124.854C95.4313 127.865 95.1736 127.378 95.4693 128.733C96.0989 131.595 96.6946 131.223 98.034 135.224C98.5748 136.837 98.8368 137.972 99.9269 138.764C100.425 139.124 100.573 139.035 101.566 139.691C102.149 140.076 102.796 140.563 103.797 140.957C104.313 141.16 104.52 141.177 104.68 141.084C105.09 140.851 104.976 140.059 104.976 139.399C104.976 137.646 105.791 137.426 106.282 135.266C106.62 133.772 106.522 132.569 106.451 131.642C106.353 130.431 106.239 129.004 105.525 127.679C104.9 126.514 104.22 126.188 101.782 124.473C97.4932 121.459 95.6679 119.706 95.051 120.214C94.9243 120.32 94.9031 120.476 94.882 120.887V120.891ZM30.182 189.27C30.2243 189.312 30.9003 189.977 31.5594 190.371C32.903 191.167 34.0269 190.726 37.3268 190.591C39.1943 190.515 40.6309 190.578 42.5618 190.214C42.8617 190.159 43.8631 189.956 44.7546 189.177C45.0166 188.948 45.6715 188.376 45.5363 188.016C45.3546 187.517 43.7913 187.737 42.2449 187.826C40.9435 187.906 38.7845 187.733 34.4706 187.386C30.8116 187.093 29.075 186.776 28.8595 187.356C28.6948 187.8 29.4933 188.592 30.1778 189.274L30.182 189.27ZM93.0948 184.748C93.2976 185.196 93.53 185.709 94.0201 186.247C94.7172 187.009 95.4609 187.305 95.8749 187.466C96.3608 187.652 96.7326 187.712 97.265 187.796C98.2495 187.949 98.4988 187.851 99.3269 187.936C100.358 188.046 101.135 188.321 101.769 188.546C102.99 188.978 103.037 189.198 103.915 189.388C104.27 189.465 104.972 189.608 105.855 189.481C106.607 189.371 106.704 189.181 108.255 188.685C109.205 188.381 109.425 188.372 109.434 188.262C109.463 187.902 107.143 187.513 103.789 186.717C97.8903 185.315 94.937 184.612 93.8088 183.905C93.6398 183.799 92.9849 183.371 92.799 183.575C92.6427 183.748 92.892 184.307 93.0948 184.748Z" fill="currentColor"/>
</svg>
