<svg viewBox="0 0 183 240" fill="none" xmlns="http://www.w3.org/2000/svg">
<path d="M18.0076 92.7076C26.3438 82.1453 38.5523 74.0233 50.74 74.9456C52.0999 75.0194 45.3002 76.3582 43.717 77.7707C43.4782 77.7918 46.0736 78.6035 46.2812 79.1147C26.3075 80.717 8.01552 108.156 6.69709 128.948C7.10196 130.097 6.70747 141.803 13.3256 134.783C27.7038 120.763 50.5168 112.91 71.5546 103.792C73.5634 99.8756 72.4163 107.154 75.1777 106.348C76.6726 105.246 74.1915 96.8714 77.9599 102.49C80.8148 106.337 81.9827 105.136 82.0657 100.25C86.6906 95.9648 113.651 81.5761 94.8089 73.9442C79.1901 69.9017 76.3664 59.0021 68.435 59.6767C67.3242 59.8454 65.4815 60.9469 66.312 62.507C61.8584 62.9392 63.535 55.7817 67.1062 56.1138C72.7069 52.6246 87.3395 69.401 92.9506 63.851C88.6164 60.9627 82.2682 55.2863 79.1693 48.9774C78.9098 43.9492 67.9315 39.8381 73.9319 37.2714C82.1124 41.1084 82.4031 49.3832 90.2981 53.9581C102.948 66.4547 106.301 59.2603 101.1 49.5835C97.4042 44.7451 91.7619 42.3417 90.0334 36.2594C87.8741 30.1613 88.0246 30.8623 84.0019 25.4283C79.159 15.4668 90.5213 25.9501 90.0957 27.1781C94.1133 34.2987 92.6859 33.3922 98.2451 38.1463C104.583 45.1825 104.375 47.2592 112.094 44.8768C124.048 41.0398 104.946 38.9158 115.603 37.2081C116.765 33.0496 109.95 35.395 108.05 34.3831C101.894 32.902 89.0109 22.5084 90.5577 17.1587C92.4108 12.4995 91.71 22.4873 101.027 26.9146C105.787 30.5935 103.431 22.9827 104.718 24.6272C107.557 31.1258 107.521 28.5274 108.626 24.1581C108.258 25.0646 111.403 31.3946 111.258 27.0991C112.172 19.9574 112.359 27.6578 114.767 29.2073C115.167 29.0281 115.037 25.4915 115.431 25.6444C115.914 25.0014 116.641 24.4163 116.47 25.3756C116.319 27.3942 121.453 34.304 122.942 29.007C123.249 23.4518 130.183 21.3014 123.264 18.7135C118.561 16.7792 111.564 17.5593 106.799 15.4827C95.7639 10.9499 97.2433 -2.05265 109.452 0.276961C136.812 3.32337 146.223 2.99659 160.341 21.2224C165.573 31.2945 166.316 35.5689 173.593 41.14C173.852 41.7514 173.634 41.646 173.946 44.9981C174.071 46.3632 174.195 47.3435 173.681 47.6913C172.83 47.8495 172.098 48.1077 172.446 49.0354C173.126 51.8657 172.036 55.1387 173.416 59.2603C173.572 59.7821 174.221 61.4845 173.095 61.0998C167.302 59.6451 168.013 63.7351 165.874 67.7934C163.424 67.5405 162.589 63.5242 157.024 60.7308C149.789 57.0045 153.033 52.593 150.894 46.5634C134.948 41.0609 142.329 66.0172 131.709 73.7439C128.372 76.4109 127.235 78.6509 127.733 83.7054C126.425 90.4781 127.915 90.2515 133.827 92.3176C139.833 93.1978 149.607 109.816 158.607 108.061C158.374 132.743 165.771 120.953 177.559 133.629C178.633 137.102 176.287 142.062 172.653 142.172C172.996 140.096 175.301 137.439 174.112 135.848C167.644 127.267 153.656 130.54 166.757 140.222C169.03 141.951 168.293 150.431 164.504 151.259C169.897 140.66 150.126 134.967 152.908 123.873C157.351 110.601 139.573 109.052 134.881 104.024C132.182 101.462 128.408 99.1008 124.411 97.4986C121.286 94.7157 118.997 98.6212 120.368 100.861C121.961 104.524 130.573 110.686 130.573 110.686C137.933 116.657 149.607 135.848 155.42 143.653C158.27 166.997 152.337 188.833 157.538 212.619C162.62 231.346 185.018 224.905 182.853 233.475C182.578 233.38 182.152 233.254 181.628 233.143C179.054 232.595 176.957 233.111 176.495 233.211C174.771 233.575 171.2 233.359 163.243 231.061C156.235 227.64 147.006 232.885 144.821 225.274C143.612 221.563 138.109 221.284 136.428 217.779C134.627 215.486 133.729 214.274 138.063 216.973C138.992 217.02 147.027 223.044 147.956 219.034C150.655 213.13 139.397 208.993 148.179 211.407C150.474 203.248 145.916 207.154 145.221 202.299C152.924 206.563 146.03 191.879 144.868 189.334C143.814 186.013 142.802 175.867 142.921 172.557C142.278 165.4 147.557 158.611 140.803 153.541C140.637 153.293 139.786 151.96 139.745 150.22C141.556 145.066 140.861 143.906 135.416 141.877C131.751 140.185 115.816 127.246 114.918 124.563C105.33 110.886 109.317 135.626 108.554 141.16C108.767 151.333 105.413 151.443 106.701 158.833C107.853 160.83 106.825 170.57 104.401 172.557C100.14 176.737 62.2789 208.703 63.1872 208.176C62.8862 209.478 64.2202 213.462 61.2667 212.076C53.7142 211.839 61.4743 229.564 61.002 229.438C62.0297 233.986 65.9954 232.679 67.101 236.231C63.4727 240.343 57.1661 235.683 55.3026 240C50.5479 238.751 49.0115 235.499 48.2121 229.301C46.6757 221.089 41.5992 226.275 43.5094 215.977C45.2586 197.081 42.2896 198.642 49.9354 213.689C51.856 212.493 49.6967 203.944 53.5793 205.277C61.739 203.891 75.375 173.206 80.0881 173.316C93.5164 171.329 90.9989 151.596 90.5577 146.6C88.6994 128.943 89.6857 124.895 89.966 117.332C82.0605 115.492 68.8814 120.336 62.7305 116.657C60.5452 117.116 60.1507 121.933 57.6955 120.895C59.8704 118.096 55.0742 115.197 54.3164 119.414C53.8492 121.042 54.1139 122.429 52.6605 122.713C53.3872 120.505 51.7314 118.992 49.4475 120.088C49.2139 120.752 48.617 124.384 47.2622 124.157C47.065 124.12 47.6152 121.764 46.6653 121.569C43.4782 120.183 44.9732 126.403 42.6893 127.119C42.4505 120.9 32.1729 133.618 29.3025 134.888C-12.3475 167.181 -3.39878 110.037 18.0024 92.7023L18.0076 92.7076Z" fill="currentColor"/>
</svg>
